
<svg xmlns="http://www.w3.org/2000/svg" viewBox="0 0 345.06 116.92"><defs><style>.cls-1,.cls-3{fill:#fff}.cls-1,.cls-2{fill-rule:evenodd}.cls-2{fill:#1a1a18}</style></defs><g id="Warstwa_2" data-name="Warstwa 2"><g id="Warstwa_1-2" data-name="Warstwa 1"><path class="cls-1" d="M151.58 88.63c-4.58 0-5-7.88-5-12.17s2.72-6.15 7-6.15c2.07 0 6.64 1.65 8.21 2.34a15.5 15.5 0 0 1 3.43 1.85c1.65 1.24 2.28 1.68 2.28 3.72 0 7-9.39 10.41-16 10.41m25.36-10.41v-.58c0-2.37 3.76-4.15 5.61-5 1.32-.56 2.43-.93 3.86-1.41 5.07-1.69 11.49-1.7 11.49 5.18 0 4.36-.42 12.17-5 12.17A22.64 22.64 0 0 1 182.34 86c-2.69-1.6-5.4-4.18-5.4-7.78zm29.23-17.79c-.4 3.5-1 7.32-1.38 10.76-.22 2-.71 3.1 0 4l2 2.93c.36.54.62 1 1 1.5 1.23 1.77 1.43 1-.94 4.22-.65.88-1.31 1.74-1.93 2.61l-7.64 10.72c-.39.39-1.19.36-1.85.49s-1.3.23-2 .37c-1.24.24-2.6.43-3.82.72a16.71 16.71 0 0 1-.4 2.53c-.7 3.63-.19 3-1.81 3.91-.6.35-1.15.63-1.79 1l-5.53 3.1a6.92 6.92 0 0 1-1.89.89h-11.72c-.55 0-6.83-3.67-7.43-4-2.29-1.29-2.93-1.18-3.17-2.55l-.79-4.88c-1.27-.3-2.63-.49-4-.75-4.37-.87-3 0-4.68-2.21l-8.76-12.06c-2.3-3.2-2.13-2.28-.82-4.21.36-.54.62-1 1-1.5s.65-.9 1-1.47c1.51-2.26 1.45-1.47 1.19-3.41l-.82-6.51c-.13-1.32-.44-3.75-.79-6.44 1.33-.32 2.47-.63 3.53-.92A60.76 60.76 0 0 1 151 57.4a152.55 152.55 0 0 1 26.44-1.14 137.12 137.12 0 0 1 25.37 3.23c.89.21 1.56.42 2.1.59a12.62 12.62 0 0 0 1.28.35zm-37.21 38.46a26.89 26.89 0 0 1-2.64-2c.23-.44.49-.87.74-1.31.84-1.46 5-8.73 5.13-9.24h.29c.16.7 4.9 8.73 5.86 10.55a25.75 25.75 0 0 1-2.64 2c-1.07-.72-2.29-1.33-3.37-2-1.07.67-2.25 1.28-3.37 2zm3.96 13.63v4.4h4.84v-4.84h-4.4c-.34 0-.44.11-.44.44m-6.01 4.4h4.84v-4.4c0-.33-.11-.44-.44-.44h-4.4zm-5.43-2.34c.67.35 1.4.65 2 1a7.92 7.92 0 0 0 2.06 1v-4.69l-4.08-2zM179 112v4.64a8 8 0 0 0 2.05-1c.65-.38 1.39-.68 2-1V110zm5.42-2.85v4.69c.74-.49 2.65-1.71 2.9-2.51l1.2-4.38a2.72 2.72 0 0 0-1 .47zm-24.33 4.69v-4.69l-3-1.67A2.92 2.92 0 0 0 156 107l1.17 4.26c.28 1 2.1 2.07 2.94 2.63"/><path class="cls-1" d="M175.09 0h-4.68a36.34 36.34 0 0 0-4.11.5 28.93 28.93 0 0 0-3.75 1c-1.46.49-2.4.81-3.28 1.2a24.46 24.46 0 0 0-3 1.58c-5.26 3.14-8 9-10.68 14.62-3 6.32-5.82 12.3-11.9 14.39l-.17.06a11.74 11.74 0 0 1-4.27.84 19.18 19.18 0 0 1-7.36-1.58 20.61 20.61 0 0 0-7.89-1.67c-.12 0-.11-.08-.13-.05a1.48 1.48 0 0 0-.07.48v.29c0 .08.38.43.87 1.16.9 1.33 2.13 3 2.66 3.62l4.6 5.17c1 1 2.1 2.08 3.22 3.17 3.08 3 6.35 6.23 8.88 9.1l3.52 3.6c1.49-.36 2.58-.65 3.59-.93a62.13 62.13 0 0 1 9.45-1.94 155.18 155.18 0 0 1 26.94-1.17 140.7 140.7 0 0 1 25.89 3.3c1 .23 1.72.46 2.3.64.34.11.62.2.82.25h.24a6.49 6.49 0 0 0 .62-.8 57.35 57.35 0 0 1 6.47-7.13l1.56-1.55 3.36-3.18 3.29-3.29c.95-1 3.94-4.28 6.08-7.06a14.63 14.63 0 0 0 2.09-3.1c0-.33.11-.41.06-.44a4.94 4.94 0 0 0-1.49-.1 16.91 16.91 0 0 0-4.6 1.07l-1.29.4a26.06 26.06 0 0 1-9.15 1.38 13.13 13.13 0 0 1-8.68-4 22 22 0 0 1-2.5-3.12 37.17 37.17 0 0 1-2.37-4c-.47-.94-.92-1.87-1.36-2.78C194.57 11 190.69 3 179.08.54c-.65-.14-1.3-.25-2-.34s-1.34-.15-2-.2"/><path class="cls-2" d="M171.36 41.09h1.45c.09 0 1.54-.22 1.85-.3a10.31 10.31 0 0 0 1.63-.5 11.81 11.81 0 0 0 7.45-9.59 11.87 11.87 0 0 0-3.13-9.45 4.3 4.3 0 0 0-1.15-1 1.67 1.67 0 0 0-2.37 1.57 1.82 1.82 0 0 0 .75 1.38 8.48 8.48 0 0 1 1.91 9.5 9.21 9.21 0 0 1-2.28 3 8.4 8.4 0 0 1-12.94-10.16 7.78 7.78 0 0 1 1.28-1.9c.41-.54 1.25-.9 1.21-2a1.67 1.67 0 0 0-2.46-1.41 5.61 5.61 0 0 0-1.11 1 11.92 11.92 0 0 0-2.91 5.62 12.05 12.05 0 0 0 .78 7.23 11.66 11.66 0 0 0 3.81 4.69 12.14 12.14 0 0 0 2.77 1.5 16.8 16.8 0 0 0 3.46.76"/><path class="cls-2" d="M172.26 15.87h-.54l-.15.08a1.56 1.56 0 0 0-.94.71 2.74 2.74 0 0 0-.26 1.58v7.42a1.93 1.93 0 0 0 .43 1.41 1.68 1.68 0 0 0 2.56-.06 2.08 2.08 0 0 0 .37-1.47v-7.42c0-.83 0-1.51-.77-2a4.29 4.29 0 0 0-.7-.26"/><path class="cls-3" d="M6.36 86.12v5.63H1v-5.6zm9.82-1.94H6.36v1H0v7.52h6.37v1h9.79zm0 5.85v-2.18h113.06l1.59 2.15z"/><path class="cls-1" d="M338.7 86.12v5.63h5.4v-5.6zm-9.81-1.94h9.81v1h6.36v7.52h-6.36v1h-9.8V90H213.32l1.59-2.18h114z"/><path class="cls-3" d="M341.4 86.77h1.57v1.28h-1.57zm0 3.06h1.57v1.28h-1.57zM2.09 86.77h1.57v1.28H2.09zm0 3.06h1.57v1.28H2.09zM116.55 61.7v13.14h-1.68l-.07-.11-6.45-10.31v10.42h-1.64V61.46h1.68l.07.11 6.45 10.31V61.46h1.64zm-20.33 2.62l-1.61 5.08H98zm5.06 10.52h-1.42l-.06-.16-1.29-3.75h-4.39l-1.18 3.74v.17h-1.73l.09-.31 4.1-12.9v-.17H97l.06.16 4.48 12.9.11.32zm-22.12-12v-1.38h9.34v1.6h-3.85v11.78H83V63.06h-3.84zm-6.59-1.36H74v13.36h-1.67V61.46zm-8.38 6.07a2.15 2.15 0 0 0 1-2.07 2 2 0 0 0-1-2 5.48 5.48 0 0 0-2.42-.4h-1.94V68h1.92a5.2 5.2 0 0 0 2.44-.47zm-6.06 7.05V61.46h3.62a6.38 6.38 0 0 1 3.86 1 3.55 3.55 0 0 1 1.35 3 3.69 3.69 0 0 1-1.33 3.05 6.19 6.19 0 0 1-3.88 1.06h-1.92v5.27h-1.7zM47.65 64.32L46 69.4h3.4zm5.06 10.52h-1.43l-.05-.16-1.29-3.75h-4.39l-1.18 3.74-.06.17h-1.68l.1-.31 4.09-12.9v-.17h1.58l.05.16 4.48 12.9.11.32zm-20.77-6.11L30.82 70v4.8h-1.64V61.46h1.64v6.09l5-6 .08-.09h2.11l-.33.39L33 67.44l5.37 7 .3.39h-2.05l-.07-.09zm284.78 3.98v1.36h-8.07V60.69h1.64v11.78h6.43zm-16.21-5.95a2.13 2.13 0 0 0 1-2.07 2 2 0 0 0-1-2 5.5 5.5 0 0 0-2.43-.39h-1.91v4.9h1.91a5.22 5.22 0 0 0 2.43-.44zm-6.06 7.07V60.69h3.61a6.4 6.4 0 0 1 3.87 1 3.55 3.55 0 0 1 1.35 3 3.69 3.69 0 0 1-1.33 3 6.2 6.2 0 0 1-3.89 1.06h-1.91v5.27h-1.7zm-5.72-1.48a1.13 1.13 0 0 1 .35.82 1.1 1.1 0 0 1-.35.81 1.2 1.2 0 0 1-.83.33 1.24 1.24 0 0 1-.83-.33 1.16 1.16 0 0 1-.35-.81 1.14 1.14 0 0 1 .35-.81 1.2 1.2 0 0 1 1.66 0zm-13-4.39l-1.12 1.31v4.8H273V60.69h1.64v6.09l5.05-6 .08-.09h2.11l-.33.4-4.7 5.58 5.37 7 .3.38h-2.08l-.07-.09zm-14.69 3.6a3.78 3.78 0 0 0 3 1.15 5.58 5.58 0 0 0 3-.81l.23-.15.12.24.37.72.08.16-.13.12a6.23 6.23 0 0 1-4.09 1.32 5 5 0 0 1-4.08-1.82 7.74 7.74 0 0 1-1.41-5 8.2 8.2 0 0 1 1.4-5.12 5 5 0 0 1 4.05-1.9 7.2 7.2 0 0 1 3.83 1.19l.16.12-.09.18-.37.72-.1.21-.22-.11a6.45 6.45 0 0 0-2.8-.71 3.61 3.61 0 0 0-3 1.34 6.68 6.68 0 0 0-1 4.08 6 6 0 0 0 1.08 4.07zm-12.47-8L247 68.63h3.37zm5.05 10.52h-1.42l-.06-.16-1.28-3.75h-4.36l-1.19 3.74-.05.17h-1.68l.1-.31 4.09-12.9v-.17h1.53l.05.16 4.48 12.9.11.32zm-23.13-7.68h6.3v-5.7h1.66v13.37h-1.66V68h-6.3v6.08h-1.64V60.69h1.64v5.7z"/></g></g></svg>
